<mxfile host="app.diagrams.net" modified="2022-08-07T09:58:00.008Z" agent="5.0 (Windows NT 10.0; Win64; x64) AppleWebKit/537.36 (KHTML, like Gecko) Chrome/104.0.0.0 Safari/537.36" etag="ICHBbMjSKwbbWbDNJlEu" version="20.2.3" type="github">
  <diagram id="QO8ykHUDRNEHZd-LZHSI" name="PÃ¡gina-1">
    <mxGraphModel dx="1422" dy="754" grid="1" gridSize="10" guides="1" tooltips="1" connect="1" arrows="1" fold="1" page="1" pageScale="1" pageWidth="827" pageHeight="1169" math="0" shadow="0">
      <root>
        <mxCell id="0" />
        <mxCell id="1" parent="0" />
        <mxCell id="pxLr27Kve_ZrrmZDswN_-1" value="&lt;font face=&quot;Verdana&quot; style=&quot;font-size: 39px;&quot;&gt;&lt;b&gt;JAVA&lt;/b&gt;&lt;/font&gt;" style="ellipse;shape=cloud;whiteSpace=wrap;html=1;" vertex="1" parent="1">
          <mxGeometry x="260" y="250" width="240" height="160" as="geometry" />
        </mxCell>
        <mxCell id="pxLr27Kve_ZrrmZDswN_-2" value="Clase" style="ellipse;whiteSpace=wrap;html=1;aspect=fixed;fontFamily=Verdana;fontSize=39;fontColor=#000000;" vertex="1" parent="1">
          <mxGeometry x="630" y="270" width="120" height="120" as="geometry" />
        </mxCell>
        <mxCell id="pxLr27Kve_ZrrmZDswN_-3" value="" style="endArrow=none;html=1;rounded=0;fontFamily=Verdana;fontSize=39;fontColor=#000000;entryX=0;entryY=0.5;entryDx=0;entryDy=0;exitX=0.875;exitY=0.5;exitDx=0;exitDy=0;exitPerimeter=0;" edge="1" parent="1" source="pxLr27Kve_ZrrmZDswN_-1" target="pxLr27Kve_ZrrmZDswN_-2">
          <mxGeometry width="50" height="50" relative="1" as="geometry">
            <mxPoint x="520" y="329.5" as="sourcePoint" />
            <mxPoint x="600" y="329.5" as="targetPoint" />
          </mxGeometry>
        </mxCell>
        <mxCell id="pxLr27Kve_ZrrmZDswN_-4" value="&lt;font style=&quot;font-size: 11px;&quot;&gt;todo programa tiene&lt;/font&gt;" style="text;html=1;align=center;verticalAlign=middle;resizable=0;points=[];autosize=1;strokeColor=none;fillColor=none;fontSize=39;fontFamily=Verdana;fontColor=#000000;" vertex="1" parent="1">
          <mxGeometry x="490" y="270" width="140" height="60" as="geometry" />
        </mxCell>
        <mxCell id="pxLr27Kve_ZrrmZDswN_-5" value="&lt;font style=&quot;font-size: 11px;&quot;&gt;mismo nombre archivo&lt;/font&gt;" style="text;html=1;align=center;verticalAlign=middle;resizable=0;points=[];autosize=1;strokeColor=none;fillColor=none;fontSize=39;fontFamily=Verdana;fontColor=#000000;" vertex="1" parent="1">
          <mxGeometry x="485" y="310" width="150" height="60" as="geometry" />
        </mxCell>
      </root>
    </mxGraphModel>
  </diagram>
</mxfile>
